<?xml version="1.0" standalone="no"?>
<!DOCTYPE svg PUBLIC "-//W3C//DTD SVG 20010904//EN"
 "http://www.w3.org/TR/2001/REC-SVG-20010904/DTD/svg10.dtd">
<svg version="1.0" xmlns="http://www.w3.org/2000/svg"
 width="944.000000pt" height="944.000000pt" viewBox="0 0 944.000000 944.000000"
 preserveAspectRatio="xMidYMid meet">
<metadata>
Created by potrace 1.11, written by Peter Selinger 2001-2013
</metadata>
<g transform="translate(0.000000,944.000000) scale(0.100000,-0.100000)"
fill="#000000" stroke="none">
<path d="M3 8398 c5 -153 9 -197 23 -258 3 -14 8 -35 10 -48 18 -96 110 -316
176 -422 67 -107 277 -340 307 -340 5 0 11 -7 15 -15 3 -8 12 -15 20 -15 8 0
16 -4 18 -8 14 -35 335 -202 352 -184 3 3 6 0 6 -6 0 -7 11 -12 24 -12 14 0
28 -5 31 -10 4 -6 12 -10 18 -8 7 1 35 -3 62 -10 68 -17 92 -22 150 -30 28 -3
1049 -6 2270 -7 l2220 0 -1 120 c-2 141 -7 235 -14 235 -3 0 -5 10 -6 23 -4
86 -62 268 -125 391 -26 52 -53 100 -59 106 -3 3 -11 17 -19 33 -8 15 -18 27
-23 27 -4 0 -8 5 -8 11 0 28 -193 233 -275 294 -22 17 -42 32 -45 35 -22 25
-196 119 -300 163 -70 29 -209 68 -300 83 -25 5 -1055 10 -2289 11 l-2243 3 5
-162z"/>
<path d="M5090 8539 c221 -79 436 -232 591 -419 87 -105 147 -208 222 -380 19
-45 63 -210 73 -275 14 -96 15 -111 14 -276 l0 -166 612 -1 c337 -1 624 -4
638 -7 14 -3 36 -8 50 -10 60 -9 240 -82 240 -97 0 -4 5 -8 11 -8 15 0 77 -48
135 -105 91 -91 156 -202 196 -335 23 -75 33 -288 17 -342 -6 -18 -12 -48 -15
-67 -3 -19 -8 -40 -12 -45 -4 -6 -14 -29 -21 -51 -8 -22 -27 -59 -43 -82 -16
-24 -26 -43 -23 -43 4 0 0 -6 -7 -14 -7 -7 -29 -33 -48 -56 -114 -141 -305
-248 -480 -267 -30 -4 -535 -7 -1122 -7 -588 -1 -1068 -3 -1068 -6 0 -3 18
-11 41 -18 38 -12 180 -78 224 -105 138 -84 353 -274 401 -355 10 -18 22 -32
26 -32 4 0 8 -4 8 -9 0 -6 13 -29 29 -53 53 -80 131 -245 146 -308 1 -3 7 -25
14 -50 7 -25 15 -52 16 -60 2 -8 8 -36 14 -61 17 -75 22 -155 22 -321 -1 -87
2 -158 6 -159 5 -1 283 -2 618 -4 594 -2 662 -5 730 -29 165 -59 254 -115 350
-218 84 -90 160 -227 181 -323 3 -11 8 -33 11 -50 8 -40 9 -252 1 -292 -35
-175 -146 -356 -289 -468 -37 -29 -118 -74 -179 -99 -142 -57 -79 -55 -1545
-56 -1533 -1 -1503 -1 -1630 -31 -22 -5 -51 -11 -65 -14 -93 -15 -416 -162
-428 -196 -2 -5 -9 -9 -16 -9 -7 0 -21 -8 -32 -17 -10 -10 -39 -34 -64 -55
-50 -40 -160 -146 -160 -153 0 -3 -8 -13 -17 -23 -10 -10 -27 -31 -38 -46 -11
-16 -30 -41 -42 -56 -13 -15 -23 -31 -23 -34 0 -3 -16 -30 -35 -60 -19 -30
-36 -60 -37 -67 -2 -8 -5 -16 -8 -19 -6 -5 -44 -90 -46 -100 0 -3 -6 -18 -13
-35 -28 -67 -65 -233 -76 -333 -4 -33 -8 -231 -6 -275 1 -17 95 -17 2114 -14
1161 3 2126 7 2142 10 32 6 58 10 140 22 28 4 53 9 56 11 4 2 24 6 45 9 22 3
50 10 64 15 14 6 36 12 50 14 14 3 26 5 28 7 1 1 7 3 12 4 6 1 12 4 15 5 3 1
10 4 15 5 6 1 11 3 13 5 1 1 9 3 17 5 59 12 347 138 401 176 14 10 29 16 33
12 3 -3 6 -2 6 3 0 5 25 23 55 39 30 17 55 33 55 38 0 4 5 7 11 7 13 0 167
115 238 178 138 123 287 290 366 407 22 33 43 62 46 65 28 25 194 344 214 410
4 14 13 39 20 55 18 42 63 178 69 206 2 13 9 42 15 65 6 22 13 56 15 75 3 19
5 34 6 34 3 0 16 82 27 175 4 36 8 146 8 245 -1 193 -7 280 -31 405 -17 87
-23 118 -28 138 -3 12 -8 30 -10 40 -12 48 -67 215 -92 277 -61 155 -225 446
-300 532 -10 12 -28 34 -39 49 -11 16 -32 42 -47 58 -16 16 -28 34 -28 40 0 6
12 25 28 42 34 38 108 135 147 194 16 25 33 47 37 48 5 2 8 10 8 18 0 8 4 14
8 14 5 0 14 16 22 35 8 19 17 35 22 35 4 0 8 4 8 9 0 5 16 37 35 71 19 34 38
73 41 86 3 13 10 24 15 24 5 0 9 7 9 15 0 9 8 32 19 53 47 93 126 363 146 497
3 17 7 41 9 55 15 75 20 175 20 350 0 195 -2 233 -28 390 -2 14 -12 58 -21 99
-9 40 -18 78 -19 85 -6 30 -38 133 -46 148 -6 10 -10 23 -10 29 0 31 -116 290
-177 394 -69 116 -186 280 -255 356 -171 190 -283 287 -468 411 -91 60 -320
190 -333 187 -2 0 -70 27 -112 46 -16 7 -41 16 -55 20 -14 3 -34 10 -45 15
-58 26 -322 87 -460 106 -27 4 -572 8 -1210 10 l-1160 3 55 -20z"/>
<path d="M1432 5483 c-9 -4 -7 -3311 2 -3378 4 -27 9 -63 12 -80 2 -16 6 -41
10 -55 3 -14 7 -32 8 -40 1 -8 17 -60 35 -115 94 -283 295 -547 543 -711 124
-82 324 -171 428 -190 14 -3 39 -9 55 -14 39 -12 106 -20 228 -27 78 -4 97 -3
98 8 0 8 1 700 2 1539 l2 1525 1415 2 c778 0 1420 2 1426 2 16 1 9 262 -10
381 -6 41 -18 97 -23 110 -3 8 -8 24 -10 35 -15 83 -95 258 -168 371 -81 125
-219 279 -298 333 -12 8 -24 18 -27 21 -21 27 -230 148 -305 178 -16 6 -43 17
-60 23 -16 7 -34 13 -40 14 -5 2 -30 8 -55 16 -25 7 -49 13 -55 14 -5 2 -37 8
-70 15 -33 7 -85 15 -115 17 -55 5 -3013 10 -3028 6z"/>
</g>
</svg>
